<svg width="1024" height="1024" viewBox="0 0 1024 1024" fill="none" xmlns="http://www.w3.org/2000/svg">
<rect width="1024" height="1024" fill="#1B182B"/>
<path d="M204.74 573.002C203.02 573.002 201.5 572.602 200.18 571.802C198.82 571.042 197.76 569.982 197 568.622C196.2 567.302 195.8 565.782 195.8 564.062V546.782C195.8 545.062 196.2 543.542 197 542.222C197.76 540.862 198.82 539.802 200.18 539.042C201.5 538.242 203.02 537.842 204.74 537.842H204.86C206.58 537.842 208.12 538.242 209.48 539.042C210.8 539.802 211.86 540.862 212.66 542.222C213.42 543.542 213.8 545.062 213.8 546.782V564.062C213.8 565.782 213.42 567.302 212.66 568.622C211.86 569.982 210.8 571.042 209.48 571.802C208.12 572.602 206.58 573.002 204.86 573.002H204.74ZM204.74 555.834C203.02 555.834 201.5 555.434 200.18 554.634C198.82 553.874 197.76 552.814 197 551.454C196.2 550.134 195.8 548.614 195.8 546.894V513.054C195.8 511.334 196.2 509.814 197 508.494C197.76 507.134 198.82 506.074 200.18 505.314C201.5 504.514 203.02 504.114 204.74 504.114H204.86C206.58 504.114 208.12 504.514 209.48 505.314C210.8 506.074 211.86 507.134 212.66 508.494C213.42 509.814 213.8 511.334 213.8 513.054V546.894C213.8 548.614 213.42 550.134 212.66 551.454C211.86 552.814 210.8 553.874 209.48 554.634C208.12 555.434 206.58 555.834 204.86 555.834H204.74ZM204.74 486.166C203.02 486.166 201.5 485.766 200.18 484.966C198.82 484.206 197.76 483.146 197 481.786C196.2 480.466 195.8 478.946 195.8 477.226V459.946C195.8 458.226 196.2 456.706 197 455.386C197.76 454.026 198.82 452.966 200.18 452.206C201.5 451.406 203.02 451.006 204.74 451.006H204.86C206.58 451.006 208.12 451.406 209.48 452.206C210.8 452.966 211.86 454.026 212.66 455.386C213.42 456.706 213.8 458.226 213.8 459.946V477.226C213.8 478.946 213.42 480.466 212.66 481.786C211.86 483.146 210.8 484.206 209.48 484.966C208.12 485.766 206.58 486.166 204.86 486.166H204.74ZM276.74 640.385C275.02 640.385 273.5 639.985 272.18 639.185C270.82 638.425 269.76 637.365 269 636.005C268.2 634.685 267.8 633.165 267.8 631.445V614.165C267.8 612.445 268.2 610.925 269 609.605C269.76 608.245 270.82 607.185 272.18 606.425C273.5 605.625 275.02 605.225 276.74 605.225H276.86C278.58 605.225 280.12 605.625 281.48 606.425C282.8 607.185 283.86 608.245 284.66 609.605C285.42 610.925 285.8 612.445 285.8 614.165V631.445C285.8 633.165 285.42 634.685 284.66 636.005C283.86 637.365 282.8 638.425 281.48 639.185C280.12 639.985 278.58 640.385 276.86 640.385H276.74ZM276.74 623.217C275.02 623.217 273.5 622.817 272.18 622.017C270.82 621.257 269.76 620.197 269 618.837C268.2 617.517 267.8 615.997 267.8 614.277V580.437C267.8 578.717 268.2 577.197 269 575.877C269.76 574.517 270.82 573.457 272.18 572.697C273.5 571.897 275.02 571.497 276.74 571.497H276.86C278.58 571.497 280.12 571.897 281.48 572.697C282.8 573.457 283.86 574.517 284.66 575.877C285.42 577.197 285.8 578.717 285.8 580.437V614.277C285.8 615.997 285.42 617.517 284.66 618.837C283.86 620.197 282.8 621.257 281.48 622.017C280.12 622.817 278.58 623.217 276.86 623.217H276.74ZM276.74 589.525C275.02 589.525 273.5 589.125 272.18 588.325C270.82 587.565 269.76 586.505 269 585.145C268.2 583.825 267.8 582.305 267.8 580.585V546.745C267.8 545.025 268.2 543.505 269 542.185C269.76 540.825 270.82 539.765 272.18 539.005C273.5 538.205 275.02 537.805 276.74 537.805H276.86C278.58 537.805 280.12 538.205 281.48 539.005C282.8 539.765 283.86 540.825 284.66 542.185C285.42 543.505 285.8 545.025 285.8 546.745V580.585C285.8 582.305 285.42 583.825 284.66 585.145C283.86 586.505 282.8 587.565 281.48 588.325C280.12 589.125 278.58 589.525 276.86 589.525H276.74ZM276.74 555.834C275.02 555.834 273.5 555.434 272.18 554.634C270.82 553.874 269.76 552.814 269 551.454C268.2 550.134 267.8 548.614 267.8 546.894V529.614C267.8 527.894 268.2 526.374 269 525.054C269.76 523.694 270.82 522.634 272.18 521.874C273.5 521.074 275.02 520.674 276.74 520.674H276.86C278.58 520.674 280.12 521.074 281.48 521.874C282.8 522.634 283.86 523.694 284.66 525.054C285.42 526.374 285.8 527.894 285.8 529.614V546.894C285.8 548.614 285.42 550.134 284.66 551.454C283.86 552.814 282.8 553.874 281.48 554.634C280.12 555.434 278.58 555.834 276.86 555.834H276.74ZM276.74 538.666C275.02 538.666 273.5 538.266 272.18 537.466C270.82 536.706 269.76 535.646 269 534.286C268.2 532.966 267.8 531.446 267.8 529.726V495.886C267.8 494.166 268.2 492.646 269 491.326C269.76 489.966 270.82 488.906 272.18 488.146C273.5 487.346 275.02 486.946 276.74 486.946H276.86C278.58 486.946 280.12 487.346 281.48 488.146C282.8 488.906 283.86 489.966 284.66 491.326C285.42 492.646 285.8 494.166 285.8 495.886V529.726C285.8 531.446 285.42 532.966 284.66 534.286C283.86 535.646 282.8 536.706 281.48 537.466C280.12 538.266 278.58 538.666 276.86 538.666H276.74ZM276.74 504.975C275.02 504.975 273.5 504.575 272.18 503.775C270.82 503.015 269.76 501.955 269 500.595C268.2 499.275 267.8 497.755 267.8 496.035V462.195C267.8 460.475 268.2 458.955 269 457.635C269.76 456.275 270.82 455.215 272.18 454.455C273.5 453.655 275.02 453.255 276.74 453.255H276.86C278.58 453.255 280.12 453.655 281.48 454.455C282.8 455.215 283.86 456.275 284.66 457.635C285.42 458.955 285.8 460.475 285.8 462.195V496.035C285.8 497.755 285.42 499.275 284.66 500.595C283.86 501.955 282.8 503.015 281.48 503.775C280.12 504.575 278.58 504.975 276.86 504.975H276.74ZM276.74 435.307C275.02 435.307 273.5 434.907 272.18 434.107C270.82 433.347 269.76 432.287 269 430.927C268.2 429.607 267.8 428.087 267.8 426.367V392.527C267.8 390.807 268.2 389.287 269 387.967C269.76 386.607 270.82 385.547 272.18 384.787C273.5 383.987 275.02 383.587 276.74 383.587H276.86C278.58 383.587 280.12 383.987 281.48 384.787C282.8 385.547 283.86 386.607 284.66 387.967C285.42 389.287 285.8 390.807 285.8 392.527V426.367C285.8 428.087 285.42 429.607 284.66 430.927C283.86 432.287 282.8 433.347 281.48 434.107C280.12 434.907 278.58 435.307 276.86 435.307H276.74ZM348.74 623.539C347.02 623.539 345.5 623.139 344.18 622.339C342.82 621.579 341.76 620.519 341 619.159C340.2 617.839 339.8 616.319 339.8 614.599V580.759C339.8 579.039 340.2 577.519 341 576.199C341.76 574.839 342.82 573.779 344.18 573.019C345.5 572.219 347.02 571.819 348.74 571.819H348.86C350.58 571.819 352.12 572.219 353.48 573.019C354.8 573.779 355.86 574.839 356.66 576.199C357.42 577.519 357.8 579.039 357.8 580.759V614.599C357.8 616.319 357.42 617.839 356.66 619.159C355.86 620.519 354.8 621.579 353.48 622.339C352.12 623.139 350.58 623.539 348.86 623.539H348.74ZM348.74 553.871C347.02 553.871 345.5 553.471 344.18 552.671C342.82 551.911 341.76 550.851 341 549.491C340.2 548.171 339.8 546.651 339.8 544.931V511.091C339.8 509.371 340.2 507.851 341 506.531C341.76 505.171 342.82 504.111 344.18 503.351C345.5 502.551 347.02 502.151 348.74 502.151H348.86C350.58 502.151 352.12 502.551 353.48 503.351C354.8 504.111 355.86 505.171 356.66 506.531C357.42 507.851 357.8 509.371 357.8 511.091V544.931C357.8 546.651 357.42 548.171 356.66 549.491C355.86 550.851 354.8 551.911 353.48 552.671C352.12 553.471 350.58 553.871 348.86 553.871H348.74ZM348.74 520.18C347.02 520.18 345.5 519.78 344.18 518.98C342.82 518.22 341.76 517.16 341 515.8C340.2 514.48 339.8 512.96 339.8 511.24V477.4C339.8 475.68 340.2 474.16 341 472.84C341.76 471.48 342.82 470.42 344.18 469.66C345.5 468.86 347.02 468.46 348.74 468.46H348.86C350.58 468.46 352.12 468.86 353.48 469.66C354.8 470.42 355.86 471.48 356.66 472.84C357.42 474.16 357.8 475.68 357.8 477.4V511.24C357.8 512.96 357.42 514.48 356.66 515.8C355.86 517.16 354.8 518.22 353.48 518.98C352.12 519.78 350.58 520.18 348.86 520.18H348.74ZM348.74 486.488C347.02 486.488 345.5 486.088 344.18 485.288C342.82 484.528 341.76 483.468 341 482.108C340.2 480.788 339.8 479.268 339.8 477.548V460.268C339.8 458.548 340.2 457.028 341 455.708C341.76 454.348 342.82 453.288 344.18 452.528C345.5 451.728 347.02 451.328 348.74 451.328H348.86C350.58 451.328 352.12 451.728 353.48 452.528C354.8 453.288 355.86 454.348 356.66 455.708C357.42 457.028 357.8 458.548 357.8 460.268V477.548C357.8 479.268 357.42 480.788 356.66 482.108C355.86 483.468 354.8 484.528 353.48 485.288C352.12 486.088 350.58 486.488 348.86 486.488H348.74ZM348.74 469.32C347.02 469.32 345.5 468.92 344.18 468.12C342.82 467.36 341.76 466.3 341 464.94C340.2 463.62 339.8 462.1 339.8 460.38V443.1C339.8 441.38 340.2 439.86 341 438.54C341.76 437.18 342.82 436.12 344.18 435.36C345.5 434.56 347.02 434.16 348.74 434.16H348.86C350.58 434.16 352.12 434.56 353.48 435.36C354.8 436.12 355.86 437.18 356.66 438.54C357.42 439.86 357.8 441.38 357.8 443.1V460.38C357.8 462.1 357.42 463.62 356.66 464.94C355.86 466.3 354.8 467.36 353.48 468.12C352.12 468.92 350.58 469.32 348.86 469.32H348.74ZM348.74 452.152C347.02 452.152 345.5 451.752 344.18 450.952C342.82 450.192 341.76 449.132 341 447.772C340.2 446.452 339.8 444.932 339.8 443.212V409.372C339.8 407.652 340.2 406.132 341 404.812C341.76 403.452 342.82 402.392 344.18 401.632C345.5 400.832 347.02 400.432 348.74 400.432H348.86C350.58 400.432 352.12 400.832 353.48 401.632C354.8 402.392 355.86 403.452 356.66 404.812C357.42 406.132 357.8 407.652 357.8 409.372V443.212C357.8 444.932 357.42 446.452 356.66 447.772C355.86 449.132 354.8 450.192 353.48 450.952C352.12 451.752 350.58 452.152 348.86 452.152H348.74ZM420.74 639.242C419.02 639.242 417.5 638.842 416.18 638.042C414.82 637.282 413.76 636.222 413 634.862C412.2 633.542 411.8 632.022 411.8 630.302V596.462C411.8 594.742 412.2 593.222 413 591.902C413.76 590.542 414.82 589.482 416.18 588.722C417.5 587.922 419.02 587.522 420.74 587.522H420.86C422.58 587.522 424.12 587.922 425.48 588.722C426.8 589.482 427.86 590.542 428.66 591.902C429.42 593.222 429.8 594.742 429.8 596.462V630.302C429.8 632.022 429.42 633.542 428.66 634.862C427.86 636.222 426.8 637.282 425.48 638.042C424.12 638.842 422.58 639.242 420.86 639.242H420.74ZM420.74 605.551C419.02 605.551 417.5 605.151 416.18 604.351C414.82 603.591 413.76 602.531 413 601.171C412.2 599.851 411.8 598.331 411.8 596.611V562.771C411.8 561.051 412.2 559.531 413 558.211C413.76 556.851 414.82 555.791 416.18 555.031C417.5 554.231 419.02 553.831 420.74 553.831H420.86C422.58 553.831 424.12 554.231 425.48 555.031C426.8 555.791 427.86 556.851 428.66 558.211C429.42 559.531 429.8 561.051 429.8 562.771V596.611C429.8 598.331 429.42 599.851 428.66 601.171C427.86 602.531 426.8 603.591 425.48 604.351C424.12 605.151 422.58 605.551 420.86 605.551H420.74ZM420.74 571.859C419.02 571.859 417.5 571.459 416.18 570.659C414.82 569.899 413.76 568.839 413 567.479C412.2 566.159 411.8 564.639 411.8 562.919V545.639C411.8 543.919 412.2 542.399 413 541.079C413.76 539.719 414.82 538.659 416.18 537.899C417.5 537.099 419.02 536.699 420.74 536.699H420.86C422.58 536.699 424.12 537.099 425.48 537.899C426.8 538.659 427.86 539.719 428.66 541.079C429.42 542.399 429.8 543.919 429.8 545.639V562.919C429.8 564.639 429.42 566.159 428.66 567.479C427.86 568.839 426.8 569.899 425.48 570.659C424.12 571.459 422.58 571.859 420.86 571.859H420.74ZM420.74 554.691C419.02 554.691 417.5 554.291 416.18 553.491C414.82 552.731 413.76 551.671 413 550.311C412.2 548.991 411.8 547.471 411.8 545.751V528.471C411.8 526.751 412.2 525.231 413 523.911C413.76 522.551 414.82 521.491 416.18 520.731C417.5 519.931 419.02 519.531 420.74 519.531H420.86C422.58 519.531 424.12 519.931 425.48 520.731C426.8 521.491 427.86 522.551 428.66 523.911C429.42 525.231 429.8 526.751 429.8 528.471V545.751C429.8 547.471 429.42 548.991 428.66 550.311C427.86 551.671 426.8 552.731 425.48 553.491C424.12 554.291 422.58 554.691 420.86 554.691H420.74ZM420.74 537.523C419.02 537.523 417.5 537.123 416.18 536.323C414.82 535.563 413.76 534.503 413 533.143C412.2 531.823 411.8 530.303 411.8 528.583V494.743C411.8 493.023 412.2 491.503 413 490.183C413.76 488.823 414.82 487.763 416.18 487.003C417.5 486.203 419.02 485.803 420.74 485.803H420.86C422.58 485.803 424.12 486.203 425.48 487.003C426.8 487.763 427.86 488.823 428.66 490.183C429.42 491.503 429.8 493.023 429.8 494.743V528.583C429.8 530.303 429.42 531.823 428.66 533.143C427.86 534.503 426.8 535.563 425.48 536.323C424.12 537.123 422.58 537.523 420.86 537.523H420.74ZM420.74 503.832C419.02 503.832 417.5 503.432 416.18 502.632C414.82 501.872 413.76 500.812 413 499.452C412.2 498.132 411.8 496.612 411.8 494.892V461.052C411.8 459.332 412.2 457.812 413 456.492C413.76 455.132 414.82 454.072 416.18 453.312C417.5 452.512 419.02 452.112 420.74 452.112H420.86C422.58 452.112 424.12 452.512 425.48 453.312C426.8 454.072 427.86 455.132 428.66 456.492C429.42 457.812 429.8 459.332 429.8 461.052V494.892C429.8 496.612 429.42 498.132 428.66 499.452C427.86 500.812 426.8 501.872 425.48 502.632C424.12 503.432 422.58 503.832 420.86 503.832H420.74ZM420.74 470.141C419.02 470.141 417.5 469.741 416.18 468.941C414.82 468.181 413.76 467.121 413 465.761C412.2 464.441 411.8 462.921 411.8 461.201V427.361C411.8 425.641 412.2 424.121 413 422.801C413.76 421.441 414.82 420.381 416.18 419.621C417.5 418.821 419.02 418.421 420.74 418.421H420.86C422.58 418.421 424.12 418.821 425.48 419.621C426.8 420.381 427.86 421.441 428.66 422.801C429.42 424.121 429.8 425.641 429.8 427.361V461.201C429.8 462.921 429.42 464.441 428.66 465.761C427.86 467.121 426.8 468.181 425.48 468.941C424.12 469.741 422.58 470.141 420.86 470.141H420.74ZM420.74 436.449C419.02 436.449 417.5 436.049 416.18 435.249C414.82 434.489 413.76 433.429 413 432.069C412.2 430.749 411.8 429.229 411.8 427.509V393.669C411.8 391.949 412.2 390.429 413 389.109C413.76 387.749 414.82 386.689 416.18 385.929C417.5 385.129 419.02 384.729 420.74 384.729H420.86C422.58 384.729 424.12 385.129 425.48 385.929C426.8 386.689 427.86 387.749 428.66 389.109C429.42 390.429 429.8 391.949 429.8 393.669V427.509C429.8 429.229 429.42 430.749 428.66 432.069C427.86 433.429 426.8 434.489 425.48 435.249C424.12 436.049 422.58 436.449 420.86 436.449H420.74ZM492.74 589.525C491.02 589.525 489.5 589.125 488.18 588.325C486.82 587.565 485.76 586.505 485 585.145C484.2 583.825 483.8 582.305 483.8 580.585V546.745C483.8 545.025 484.2 543.505 485 542.185C485.76 540.825 486.82 539.765 488.18 539.005C489.5 538.205 491.02 537.805 492.74 537.805H492.86C494.58 537.805 496.12 538.205 497.48 539.005C498.8 539.765 499.86 540.825 500.66 542.185C501.42 543.505 501.8 545.025 501.8 546.745V580.585C501.8 582.305 501.42 583.825 500.66 585.145C499.86 586.505 498.8 587.565 497.48 588.325C496.12 589.125 494.58 589.525 492.86 589.525H492.74ZM492.74 555.834C491.02 555.834 489.5 555.434 488.18 554.634C486.82 553.874 485.76 552.814 485 551.454C484.2 550.134 483.8 548.614 483.8 546.894V513.054C483.8 511.334 484.2 509.814 485 508.494C485.76 507.134 486.82 506.074 488.18 505.314C489.5 504.514 491.02 504.114 492.74 504.114H492.86C494.58 504.114 496.12 504.514 497.48 505.314C498.8 506.074 499.86 507.134 500.66 508.494C501.42 509.814 501.8 511.334 501.8 513.054V546.894C501.8 548.614 501.42 550.134 500.66 551.454C499.86 552.814 498.8 553.874 497.48 554.634C496.12 555.434 494.58 555.834 492.86 555.834H492.74ZM492.74 486.166C491.02 486.166 489.5 485.766 488.18 484.966C486.82 484.206 485.76 483.146 485 481.786C484.2 480.466 483.8 478.946 483.8 477.226V443.386C483.8 441.666 484.2 440.146 485 438.826C485.76 437.466 486.82 436.406 488.18 435.646C489.5 434.846 491.02 434.446 492.74 434.446H492.86C494.58 434.446 496.12 434.846 497.48 435.646C498.8 436.406 499.86 437.466 500.66 438.826C501.42 440.146 501.8 441.666 501.8 443.386V477.226C501.8 478.946 501.42 480.466 500.66 481.786C499.86 483.146 498.8 484.206 497.48 484.966C496.12 485.766 494.58 486.166 492.86 486.166H492.74ZM564.74 564.418C563.02 564.418 561.5 564.018 560.18 563.218C558.82 562.458 557.76 561.398 557 560.038C556.2 558.718 555.8 557.198 555.8 555.478V521.638C555.8 519.918 556.2 518.398 557 517.078C557.76 515.718 558.82 514.658 560.18 513.898C561.5 513.098 563.02 512.698 564.74 512.698H564.86C566.58 512.698 568.12 513.098 569.48 513.898C570.8 514.658 571.86 515.718 572.66 517.078C573.42 518.398 573.8 519.918 573.8 521.638V555.478C573.8 557.198 573.42 558.718 572.66 560.038C571.86 561.398 570.8 562.458 569.48 563.218C568.12 564.018 566.58 564.418 564.86 564.418H564.74ZM564.74 530.727C563.02 530.727 561.5 530.327 560.18 529.527C558.82 528.767 557.76 527.707 557 526.347C556.2 525.027 555.8 523.507 555.8 521.787V504.507C555.8 502.787 556.2 501.267 557 499.947C557.76 498.587 558.82 497.527 560.18 496.767C561.5 495.967 563.02 495.567 564.74 495.567H564.86C566.58 495.567 568.12 495.967 569.48 496.767C570.8 497.527 571.86 498.587 572.66 499.947C573.42 501.267 573.8 502.787 573.8 504.507V521.787C573.8 523.507 573.42 525.027 572.66 526.347C571.86 527.707 570.8 528.767 569.48 529.527C568.12 530.327 566.58 530.727 564.86 530.727H564.74ZM636.74 571.537C635.02 571.537 633.5 571.137 632.18 570.337C630.82 569.577 629.76 568.517 629 567.157C628.2 565.837 627.8 564.317 627.8 562.597V528.757C627.8 527.037 628.2 525.517 629 524.197C629.76 522.837 630.82 521.777 632.18 521.017C633.5 520.217 635.02 519.817 636.74 519.817H636.86C638.58 519.817 640.12 520.217 641.48 521.017C642.8 521.777 643.86 522.837 644.66 524.197C645.42 525.517 645.8 527.037 645.8 528.757V562.597C645.8 564.317 645.42 565.837 644.66 567.157C643.86 568.517 642.8 569.577 641.48 570.337C640.12 571.137 638.58 571.537 636.86 571.537H636.74ZM636.74 537.846C635.02 537.846 633.5 537.446 632.18 536.646C630.82 535.886 629.76 534.826 629 533.466C628.2 532.146 627.8 530.626 627.8 528.906V495.066C627.8 493.346 628.2 491.826 629 490.506C629.76 489.146 630.82 488.086 632.18 487.326C633.5 486.526 635.02 486.126 636.74 486.126H636.86C638.58 486.126 640.12 486.526 641.48 487.326C642.8 488.086 643.86 489.146 644.66 490.506C645.42 491.826 645.8 493.346 645.8 495.066V528.906C645.8 530.626 645.42 532.146 644.66 533.466C643.86 534.826 642.8 535.886 641.48 536.646C640.12 537.446 638.58 537.846 636.86 537.846H636.74ZM636.74 504.154C635.02 504.154 633.5 503.754 632.18 502.954C630.82 502.194 629.76 501.134 629 499.774C628.2 498.454 627.8 496.934 627.8 495.214V461.374C627.8 459.654 628.2 458.134 629 456.814C629.76 455.454 630.82 454.394 632.18 453.634C633.5 452.834 635.02 452.434 636.74 452.434H636.86C638.58 452.434 640.12 452.834 641.48 453.634C642.8 454.394 643.86 455.454 644.66 456.814C645.42 458.134 645.8 459.654 645.8 461.374V495.214C645.8 496.934 645.42 498.454 644.66 499.774C643.86 501.134 642.8 502.194 641.48 502.954C640.12 503.754 638.58 504.154 636.86 504.154H636.74ZM708.74 656.908C707.02 656.908 705.5 656.508 704.18 655.708C702.82 654.948 701.76 653.888 701 652.528C700.2 651.208 699.8 649.688 699.8 647.968V614.128C699.8 612.408 700.2 610.888 701 609.568C701.76 608.208 702.82 607.148 704.18 606.388C705.5 605.588 707.02 605.188 708.74 605.188H708.86C710.58 605.188 712.12 605.588 713.48 606.388C714.8 607.148 715.86 608.208 716.66 609.568C717.42 610.888 717.8 612.408 717.8 614.128V647.968C717.8 649.688 717.42 651.208 716.66 652.528C715.86 653.888 714.8 654.948 713.48 655.708C712.12 656.508 710.58 656.908 708.86 656.908H708.74ZM708.74 623.217C707.02 623.217 705.5 622.817 704.18 622.017C702.82 621.257 701.76 620.197 701 618.837C700.2 617.517 699.8 615.997 699.8 614.277V580.437C699.8 578.717 700.2 577.197 701 575.877C701.76 574.517 702.82 573.457 704.18 572.697C705.5 571.897 707.02 571.497 708.74 571.497H708.86C710.58 571.497 712.12 571.897 713.48 572.697C714.8 573.457 715.86 574.517 716.66 575.877C717.42 577.197 717.8 578.717 717.8 580.437V614.277C717.8 615.997 717.42 617.517 716.66 618.837C715.86 620.197 714.8 621.257 713.48 622.017C712.12 622.817 710.58 623.217 708.86 623.217H708.74ZM708.74 589.525C707.02 589.525 705.5 589.125 704.18 588.325C702.82 587.565 701.76 586.505 701 585.145C700.2 583.825 699.8 582.305 699.8 580.585V546.745C699.8 545.025 700.2 543.505 701 542.185C701.76 540.825 702.82 539.765 704.18 539.005C705.5 538.205 707.02 537.805 708.74 537.805H708.86C710.58 537.805 712.12 538.205 713.48 539.005C714.8 539.765 715.86 540.825 716.66 542.185C717.42 543.505 717.8 545.025 717.8 546.745V580.585C717.8 582.305 717.42 583.825 716.66 585.145C715.86 586.505 714.8 587.565 713.48 588.325C712.12 589.125 710.58 589.525 708.86 589.525H708.74ZM708.74 519.857C707.02 519.857 705.5 519.457 704.18 518.657C702.82 517.897 701.76 516.837 701 515.477C700.2 514.157 699.8 512.637 699.8 510.917V477.077C699.8 475.357 700.2 473.837 701 472.517C701.76 471.157 702.82 470.097 704.18 469.337C705.5 468.537 707.02 468.137 708.74 468.137H708.86C710.58 468.137 712.12 468.537 713.48 469.337C714.8 470.097 715.86 471.157 716.66 472.517C717.42 473.837 717.8 475.357 717.8 477.077V510.917C717.8 512.637 717.42 514.157 716.66 515.477C715.86 516.837 714.8 517.897 713.48 518.657C712.12 519.457 710.58 519.857 708.86 519.857H708.74ZM708.74 486.166C707.02 486.166 705.5 485.766 704.18 484.966C702.82 484.206 701.76 483.146 701 481.786C700.2 480.466 699.8 478.946 699.8 477.226V443.386C699.8 441.666 700.2 440.146 701 438.826C701.76 437.466 702.82 436.406 704.18 435.646C705.5 434.846 707.02 434.446 708.74 434.446H708.86C710.58 434.446 712.12 434.846 713.48 435.646C714.8 436.406 715.86 437.466 716.66 438.826C717.42 440.146 717.8 441.666 717.8 443.386V477.226C717.8 478.946 717.42 480.466 716.66 481.786C715.86 483.146 714.8 484.206 713.48 484.966C712.12 485.766 710.58 486.166 708.86 486.166H708.74ZM708.74 452.475C707.02 452.475 705.5 452.075 704.18 451.275C702.82 450.515 701.76 449.455 701 448.095C700.2 446.775 699.8 445.255 699.8 443.535V409.695C699.8 407.975 700.2 406.455 701 405.135C701.76 403.775 702.82 402.715 704.18 401.955C705.5 401.155 707.02 400.755 708.74 400.755H708.86C710.58 400.755 712.12 401.155 713.48 401.955C714.8 402.715 715.86 403.775 716.66 405.135C717.42 406.455 717.8 407.975 717.8 409.695V443.535C717.8 445.255 717.42 446.775 716.66 448.095C715.86 449.455 714.8 450.515 713.48 451.275C712.12 452.075 710.58 452.475 708.86 452.475H708.74ZM708.74 418.783C707.02 418.783 705.5 418.383 704.18 417.583C702.82 416.823 701.76 415.763 701 414.403C700.2 413.083 699.8 411.563 699.8 409.843V376.003C699.8 374.283 700.2 372.763 701 371.443C701.76 370.083 702.82 369.023 704.18 368.263C705.5 367.463 707.02 367.063 708.74 367.063H708.86C710.58 367.063 712.12 367.463 713.48 368.263C714.8 369.023 715.86 370.083 716.66 371.443C717.42 372.763 717.8 374.283 717.8 376.003V409.843C717.8 411.563 717.42 413.083 716.66 414.403C715.86 415.763 714.8 416.823 713.48 417.583C712.12 418.383 710.58 418.783 708.86 418.783H708.74ZM780.74 623.217C779.02 623.217 777.5 622.817 776.18 622.017C774.82 621.257 773.76 620.197 773 618.837C772.2 617.517 771.8 615.997 771.8 614.277V580.437C771.8 578.717 772.2 577.197 773 575.877C773.76 574.517 774.82 573.457 776.18 572.697C777.5 571.897 779.02 571.497 780.74 571.497H780.86C782.58 571.497 784.12 571.897 785.48 572.697C786.8 573.457 787.86 574.517 788.66 575.877C789.42 577.197 789.8 578.717 789.8 580.437V614.277C789.8 615.997 789.42 617.517 788.66 618.837C787.86 620.197 786.8 621.257 785.48 622.017C784.12 622.817 782.58 623.217 780.86 623.217H780.74ZM780.74 553.549C779.02 553.549 777.5 553.149 776.18 552.349C774.82 551.589 773.76 550.529 773 549.169C772.2 547.849 771.8 546.329 771.8 544.609V510.769C771.8 509.049 772.2 507.529 773 506.209C773.76 504.849 774.82 503.789 776.18 503.029C777.5 502.229 779.02 501.829 780.74 501.829H780.86C782.58 501.829 784.12 502.229 785.48 503.029C786.8 503.789 787.86 504.849 788.66 506.209C789.42 507.529 789.8 509.049 789.8 510.769V544.609C789.8 546.329 789.42 547.849 788.66 549.169C787.86 550.529 786.8 551.589 785.48 552.349C784.12 553.149 782.58 553.549 780.86 553.549H780.74ZM780.74 519.857C779.02 519.857 777.5 519.457 776.18 518.657C774.82 517.897 773.76 516.837 773 515.477C772.2 514.157 771.8 512.637 771.8 510.917V477.077C771.8 475.357 772.2 473.837 773 472.517C773.76 471.157 774.82 470.097 776.18 469.337C777.5 468.537 779.02 468.137 780.74 468.137H780.86C782.58 468.137 784.12 468.537 785.48 469.337C786.8 470.097 787.86 471.157 788.66 472.517C789.42 473.837 789.8 475.357 789.8 477.077V510.917C789.8 512.637 789.42 514.157 788.66 515.477C787.86 516.837 786.8 517.897 785.48 518.657C784.12 519.457 782.58 519.857 780.86 519.857H780.74ZM780.74 486.166C779.02 486.166 777.5 485.766 776.18 484.966C774.82 484.206 773.76 483.146 773 481.786C772.2 480.466 771.8 478.946 771.8 477.226V443.386C771.8 441.666 772.2 440.146 773 438.826C773.76 437.466 774.82 436.406 776.18 435.646C777.5 434.846 779.02 434.446 780.74 434.446H780.86C782.58 434.446 784.12 434.846 785.48 435.646C786.8 436.406 787.86 437.466 788.66 438.826C789.42 440.146 789.8 441.666 789.8 443.386V477.226C789.8 478.946 789.42 480.466 788.66 481.786C787.86 483.146 786.8 484.206 785.48 484.966C784.12 485.766 782.58 486.166 780.86 486.166H780.74ZM780.74 452.475C779.02 452.475 777.5 452.075 776.18 451.275C774.82 450.515 773.76 449.455 773 448.095C772.2 446.775 771.8 445.255 771.8 443.535V409.695C771.8 407.975 772.2 406.455 773 405.135C773.76 403.775 774.82 402.715 776.18 401.955C777.5 401.155 779.02 400.755 780.74 400.755H780.86C782.58 400.755 784.12 401.155 785.48 401.955C786.8 402.715 787.86 403.775 788.66 405.135C789.42 406.455 789.8 407.975 789.8 409.695V443.535C789.8 445.255 789.42 446.775 788.66 448.095C787.86 449.455 786.8 450.515 785.48 451.275C784.12 452.075 782.58 452.475 780.86 452.475H780.74Z" fill="#65FFB7"/>
</svg>
